<svg xmlns="http://www.w3.org/2000/svg" xmlns:xlink="http://www.w3.org/1999/xlink" viewBox="0,0,256,256" width="40px" height="40px" fill-rule="nonzero"><g fill="#ffffff" fill-rule="nonzero" stroke="none" stroke-width="1" stroke-linecap="butt" stroke-linejoin="miter" stroke-miterlimit="10" stroke-dasharray="" stroke-dashoffset="0" font-family="none" font-weight="none" font-size="none" text-anchor="none" style="mix-blend-mode: normal"><g transform="scale(2.56,2.56)"><path d="M57.75195,15.8125c-0.36103,0.05198 -0.67823,0.30227 -0.80273,0.66602c-1.135,3.302 -3.27442,5.09036 -6.35742,5.31836c-3.734,0.271 -6.23606,-1.46064 -7.66406,-5.30664c-0.176,-0.476 -0.67783,-0.746 -1.17383,-0.625c-3.7,0.905 -7.16397,2.35841 -10.29297,4.31641c-0.43,0.268 -0.59105,0.81544 -0.37305,1.27344c1.617,3.416 1.25,6.25202 -1.125,8.66602c-2.407,2.448 -5.25961,2.86062 -8.72461,1.26563c-0.461,-0.214 -1.00748,-0.04433 -1.27148,0.38867c-1.949,3.207 -3.35941,6.68122 -4.19141,10.32422c-0.112,0.49 0.15591,0.98716 0.62891,1.16016c3.464,1.27 5.18763,3.4883 5.26563,6.7793c0.082,3.428 -1.61087,5.76734 -5.17187,7.15234c-0.466,0.182 -0.72542,0.68002 -0.60742,1.16602c0.874,3.604 2.32636,7.04456 4.31836,10.22656c0.266,0.424 0.80186,0.58381 1.25586,0.38281c3.354,-1.493 6.13119,-1.10169 8.49219,1.19531c2.419,2.353 2.87463,5.15545 1.39063,8.56445c-0.2,0.459 -0.03052,0.99391 0.39648,1.25391c3.2,1.945 6.6592,3.35636 10.2832,4.19336c0.062,0.014 0.1255,0.01953 0.1875,0.01953c0.396,0 0.7947,-0.26709 0.9707,-0.62109c0.052,-0.098 0.09119,-0.178 0.11719,-0.25c1.142,-2.977 3.67528,-4.84972 6.61328,-4.88672c0.035,-0.001 0.06952,0 0.10352,0c3.1,0 5.6528,1.75584 6.8418,4.71484c0.224,0.554 0.72555,1.15591 1.81055,0.87891c3.295,-0.833 6.44242,-2.13509 9.35742,-3.87109c0.124,-0.074 0.24551,-0.15452 0.35352,-0.22852l0.10938,-0.07422c0.408,-0.268 0.56323,-0.79424 0.36523,-1.24023c-1.38,-3.111 -1.1052,-5.72805 0.8418,-7.99805c2.38,-2.774 5.32967,-3.35902 9.01367,-1.79102c0.451,0.195 0.98119,0.02742 1.24219,-0.39258c1.973,-3.19 3.40767,-6.63623 4.26367,-10.24023c0.116,-0.488 -0.14623,-0.98506 -0.61523,-1.16406c-3.424,-1.311 -5.12245,-3.53116 -5.18945,-6.78516c-0.072,-3.427 1.62459,-5.76258 5.18359,-7.14258c0.42,-0.163 0.67781,-0.5862 0.63281,-1.0332c-0.244,-2.412 -2.94395,-8.91692 -4.37695,-10.54492c-0.295,-0.334 -0.77483,-0.43409 -1.17383,-0.24609c-3.38,1.584 -6.19828,1.19555 -8.61328,-1.18945c-2.427,-2.397 -2.82856,-5.25152 -1.22656,-8.72852c0.212,-0.46 0.04623,-1.00353 -0.38477,-1.26953c-3.217,-1.981 -6.69398,-3.41477 -10.33398,-4.25977c-0.125,-0.0295 -0.2488,-0.03491 -0.36914,-0.01758zM58.51563,17.98438c2.848,0.743 5.58625,1.87223 8.15625,3.36523c-1.504,3.883 -0.82472,7.38116 1.98828,10.16016c2.809,2.774 6.29342,3.42525 10.10742,1.90625c1.127,1.783 2.84966,5.96572 3.34766,8.13672c-3.816,1.736 -5.78322,4.73947 -5.69922,8.73047c0.079,3.826 1.97934,6.60258 5.65234,8.26758c-0.753,2.833 -1.88877,5.55523 -3.38477,8.11523c-4.128,-1.477 -7.743,-0.56652 -10.5,2.64648c-2.257,2.632 -2.76247,5.83369 -1.48047,9.30469c-2.536,1.474 -5.2572,2.603 -8.1582,3.375c-1.589,-3.537 -4.80539,-5.57959 -8.65039,-5.55859c-3.57,0.045 -6.6627,2.16175 -8.2207,5.59375c-2.852,-0.735 -5.59111,-1.85112 -8.16211,-3.32812c1.38,-3.815 0.6408,-7.24575 -2.1582,-9.96875c-2.735,-2.66 -6.13877,-3.31883 -9.88477,-1.92383c-1.51,-2.551 -2.65783,-5.26961 -3.42383,-8.09961c3.779,-1.745 5.719,-4.74184 5.625,-8.71484c-0.091,-3.812 -2.07114,-6.65839 -5.74414,-8.27539c0.731,-2.855 1.8415,-5.59316 3.3125,-8.16016c3.873,1.493 7.36834,0.7978 10.15234,-2.0332c2.752,-2.798 3.38819,-6.27275 1.86719,-10.09375c2.512,-1.478 5.24272,-2.62225 8.13672,-3.40625c1.81,4.095 5.0297,6.09558 9.3457,5.76758c3.618,-0.266 6.29039,-2.26864 7.77539,-5.80664zM48.85352,27.92188c-0.68175,0.02975 -1.3602,0.09109 -2.0332,0.18359c-0.272,0.038 -0.46083,0.28759 -0.42383,0.55859c0.034,0.248 0.24623,0.42969 0.49023,0.42969c0.023,0 0.04436,-0.00091 0.06836,-0.00391c1.285,-0.175 2.59844,-0.23292 3.89844,-0.16992c0.312,0.035 0.50653,-0.20066 0.51953,-0.47266c0.013,-0.275 -0.1977,-0.50653 -0.4707,-0.51953c-0.682,-0.0335 -1.36708,-0.03561 -2.04883,-0.00586zM44.75391,28.59766c-0.064,-0.00972 -0.13147,-0.00698 -0.19922,0.00977c-7.146,1.818 -12.90439,7.05295 -15.40039,14.00195c-0.093,0.258 0.04083,0.54177 0.29883,0.63477c0.056,0.019 0.11197,0.0293 0.16797,0.0293c0.203,0 0.39575,-0.12613 0.46875,-0.32813c0.73866,-2.05618 1.77757,-3.95285 3.06055,-5.64648l2.08789,3.09375c-0.14292,0.21838 -0.29747,0.42657 -0.43164,0.65234c-2.415,4.064 -3.10155,8.82525 -1.93555,13.40625c0.26953,1.05916 0.63971,2.07438 1.08594,3.04688l-3.67969,0.18945c-0.30315,-0.77126 -0.56443,-1.56359 -0.77148,-2.37891c-0.067,-0.264 -0.33252,-0.42838 -0.60352,-0.35937c-0.265,0.068 -0.42442,0.33752 -0.35742,0.60352c0.72649,2.86047 2.0362,5.47459 3.81055,7.74023c0.01784,0.02845 0.03977,0.05233 0.0625,0.07617c2.78689,3.52461 6.70822,6.19315 11.36523,7.57617c1.99986,0.59463 4.01333,0.90396 6.00195,0.96875c0.00594,0.00021 0.01163,0.00391 0.01758,0.00391c0.00418,0 0.00755,-0.0038 0.01172,-0.00391c0.23895,0.00748 0.47871,0.02734 0.7168,0.02734c5.425,0 10.59489,-1.94014 14.58789,-5.61914c0.202,-0.186 0.2153,-0.50017 0.0293,-0.70117c-0.186,-0.202 -0.50117,-0.2153 -0.70117,-0.0293c-2.09797,1.9332 -4.54028,3.35643 -7.17578,4.25l0.28906,-3.59961c0.00408,-0.04842 -0.00626,-0.09337 -0.01562,-0.13867c3.18638,-1.48838 5.85556,-3.88792 7.69141,-6.97656c2.415,-4.064 3.1045,-8.82525 1.9375,-13.40625c-0.24988,-0.98194 -0.594,-1.92207 -0.99609,-2.83008l3.60742,-0.38867c0.29376,0.76718 0.54827,1.55354 0.75391,2.36133c0.056,0.225 0.25847,0.37305 0.48047,0.37305c0.04,0 0.08009,-0.00367 0.12109,-0.01367c0.265,-0.068 0.42442,-0.33752 0.35742,-0.60352c-1.839,-7.227 -7.14331,-13.0107 -14.19531,-15.4707c-0.256,-0.09 -0.54281,0.04664 -0.63281,0.30664c-0.09,0.259 0.04764,0.54181 0.30664,0.63281c2.02688,0.70682 3.89781,1.70457 5.57813,2.9375l-4.78711,1.1582c-3.76134,-1.83943 -8.00832,-2.29351 -12.11133,-1.24805c-1.0389,0.26437 -2.0326,0.62808 -2.98828,1.0625l-0.39062,-3.61523c0.817,-0.32068 1.65845,-0.59484 2.52148,-0.81445c0.265,-0.068 0.42442,-0.33556 0.35742,-0.60156c-0.05025,-0.19875 -0.21034,-0.33998 -0.40234,-0.36914zM41.32422,30.78906l0.38867,3.60742c0.00263,0.02489 0.01541,0.04486 0.02148,0.06836c-0.9334,0.49305 -1.81853,1.06134 -2.64453,1.71094l-1.05469,-3.53516c1.03413,-0.71046 2.13351,-1.33126 3.28906,-1.85156zM37.18555,33.25977l1.07422,3.60156c-0.88925,0.79268 -1.70295,1.67608 -2.42383,2.64648l-2.03516,-3.01562c1.00611,-1.20115 2.14128,-2.2837 3.38477,-3.23242zM50.01953,33.37891c7.456,0 14.27041,5.03694 16.19141,12.58594c1.101,4.324 0.45087,8.8173 -1.82813,12.6543c-2.279,3.836 -5.91623,6.55425 -10.24023,7.65625c-4.327,1.1 -8.8183,0.45087 -12.6543,-1.82812c-3.836,-2.279 -6.55425,-5.91623 -7.65625,-10.24023c-1.101,-4.325 -0.45088,-8.8183 1.82813,-12.6543c2.279,-3.836 5.91624,-6.55425 10.24023,-7.65625c1.378,-0.351 2.75814,-0.51758 4.11914,-0.51758zM63.55469,33.80664c1.10868,0.92077 2.12083,1.94997 3.01758,3.07422l-3.9082,0.64453c-0.05094,0.00849 -0.09487,0.03066 -0.13867,0.05273c-1.02355,-1.01984 -2.16647,-1.93226 -3.43945,-2.69141zM67.24023,37.75781c0.84159,1.17636 1.55675,2.44886 2.14648,3.78906l-3.66406,0.39648c-0.65565,-1.27013 -1.45702,-2.45192 -2.39648,-3.52148l3.83203,-0.63477c0.02973,-0.00496 0.0546,-0.01953 0.08203,-0.0293zM50.07813,43.66797c-1.715,-0.005 -3.33002,0.63017 -4.54102,1.82617c-1.204,1.187 -1.87091,2.7757 -1.87891,4.4707c-0.016,3.495 2.82403,6.35019 6.33203,6.36719h0.00391c3.461,-0.019 6.24966,-2.71848 6.34766,-6.14648c0.048,-1.72 -0.58149,-3.34603 -1.77148,-4.58203c-1.186,-1.233 -2.78219,-1.91955 -4.49219,-1.93555zM50.01367,44.66797h0.05469c1.439,0.014 2.7842,0.59191 3.7832,1.62891c1.002,1.041 1.53123,2.41137 1.49023,3.85938c-0.082,2.886 -2.43456,5.15778 -5.35156,5.17578c-2.954,-0.015 -5.34603,-2.42028 -5.33203,-5.36328c0.007,-1.427 0.56608,-2.76372 1.58008,-3.76172c1.007,-0.995 2.34639,-1.53906 3.77539,-1.53906zM71.06641,54.40234c-0.19059,0.03323 -0.34878,0.17791 -0.39453,0.37891c-0.29,1.268 -0.6998,2.51598 -1.2168,3.70898c-0.109,0.251 0.00681,0.54434 0.25781,0.65234c0.064,0.028 0.13126,0.04102 0.19727,0.04102c0.191,0 0.37308,-0.10988 0.45508,-0.29687c0.541,-1.249 0.97044,-2.55581 1.27344,-3.88281c0.062,-0.267 -0.10505,-0.5347 -0.37305,-0.5957c-0.06725,-0.01575 -0.13569,-0.01694 -0.19922,-0.00586zM34.44922,58.46484c0.56453,1.05373 1.23233,2.04132 1.99609,2.95508l-3.48633,1.03906c-0.894,-1.17465 -1.64768,-2.44867 -2.26367,-3.79883zM69.08789,59.98438c-0.19153,-0.0188 -0.38733,0.07511 -0.48633,0.25586c-0.438,0.802 -0.92898,1.5815 -1.45898,2.3125c-0.16,0.222 -0.11067,0.53041 0.11133,0.69141c0.088,0.064 0.18902,0.0957 0.29102,0.0957c0.153,0 0.30334,-0.07208 0.40234,-0.20508c0.553,-0.767 1.06739,-1.57992 1.52539,-2.41992c0.131,-0.24 0.04178,-0.53988 -0.19922,-0.67187c-0.059,-0.032 -0.1217,-0.05233 -0.18555,-0.05859zM37.16406,62.24023c0.97404,1.02764 2.08091,1.93494 3.29883,2.7168l-3.23633,1.66211c-1.33479,-0.97529 -2.53978,-2.08876 -3.58984,-3.32617zM41.42383,65.54492c1.28908,0.71737 2.64098,1.27067 4.0332,1.64453l-2.41992,2.31445c-0.03766,0.03577 -0.06212,0.07801 -0.08594,0.12109c-1.72476,-0.60796 -3.33071,-1.40639 -4.79883,-2.36523l3.14844,-1.61719c0.04856,-0.02487 0.08679,-0.06075 0.12305,-0.09766zM56.54297,66.52344l-0.29297,3.64062c-1.8097,0.50953 -3.70022,0.76704 -5.625,0.77539l1.71094,-3.18555c0.02249,-0.04201 0.02957,-0.08643 0.03906,-0.13086c0.67238,-0.09153 1.34452,-0.21671 2.01172,-0.38672c0.7413,-0.18864 1.45611,-0.43673 2.15625,-0.71289zM46.53906,67.44531c1.13497,0.22864 2.28946,0.3457 3.45117,0.3457c0.40724,0 0.81645,-0.01849 1.22461,-0.04687l-1.70703,3.17578c-1.80331,-0.08439 -3.62913,-0.38896 -5.44141,-0.92773c-0.02643,-0.00785 -0.05174,-0.01745 -0.07812,-0.02539l2.43164,-2.32617c0.05909,-0.05612 0.09414,-0.12347 0.11914,-0.19531z"></path></g></g></svg>